# Blender v2.90.1 OBJ File: 'mesa.blend'
# www.blender.org
mtllib mesa.mtl
o tabla_Cubo
v -1.153849 -0.076198 1.188722
v -1.153849 0.076198 1.188722
v -1.153849 -0.076198 -1.296378
v -1.153849 0.076198 -1.296378
v 1.153849 -0.076198 1.188722
v 1.153849 0.076198 1.188722
v 1.153849 -0.076198 -1.296378
v 1.153849 0.076198 -1.296378
v 0.692309 -0.076198 -1.296378
v 0.692309 0.076198 -1.296378
v 0.692309 -0.076198 1.188722
v 0.692309 0.076198 1.188722
v -0.700001 -0.076198 -1.296378
v -0.700001 0.076198 1.188722
v -0.700001 0.076198 -1.296378
v -0.700001 -0.076198 1.188722
v -1.153849 -0.076198 0.782208
v -1.153849 0.076198 0.782208
v 1.153849 -0.076198 0.782208
v 1.153849 0.076198 0.782208
v 0.692309 0.076198 0.782208
v 0.692309 -0.076198 0.782208
v -0.700001 -0.076198 0.782208
v -0.700001 0.076198 0.782208
v -1.153849 0.076198 -0.837867
v 1.153849 -0.076198 -0.837867
v -1.153849 -0.076198 -0.837867
v 1.153849 0.076198 -0.837867
v 0.692309 0.076198 -0.837867
v 0.692309 -0.076198 -0.837867
v -0.700001 -0.076198 -0.837867
v -0.700001 0.076198 -0.837867
vt 0.625000 0.203874
vt 0.375000 0.250000
vt 0.375000 0.203874
vt 0.625000 0.450000
vt 0.375000 0.500000
vt 0.375000 0.450000
vt 0.625000 0.709105
vt 0.375000 0.750000
vt 0.375000 0.709105
vt 0.625000 0.950833
vt 0.375000 1.000000
vt 0.375000 0.950833
vt 0.325000 0.750000
vt 0.325000 0.709105
vt 0.875000 0.709105
vt 0.825833 0.750000
vt 0.825833 0.709105
vt 0.675000 0.709105
vt 0.625000 0.750000
vt 0.174167 0.750000
vt 0.174167 0.709105
vt 0.375000 0.800000
vt 0.625000 0.299167
vt 0.375000 0.299167
vt 0.625000 0.250000
vt 0.125000 0.750000
vt 0.125000 0.709105
vt 0.675000 0.750000
vt 0.625000 0.800000
vt 0.825833 0.546126
vt 0.675000 0.546126
vt 0.174167 0.546126
vt 0.125000 0.546126
vt 0.325000 0.546126
vt 0.625000 0.546126
vt 0.875000 0.546126
vt 0.375000 0.546126
vt 0.625000 0.000000
vt 0.375000 0.040895
vt 0.375000 0.000000
vt 0.625000 0.500000
vt 0.325000 0.500000
vt 0.875000 0.500000
vt 0.825833 0.500000
vt 0.675000 0.500000
vt 0.174167 0.500000
vt 0.125000 0.500000
vt 0.625000 0.040895
vt 0.625000 1.000000
vt 0.875000 0.750000
vn -1.0000 0.0000 0.0000
vn 0.0000 0.0000 -1.0000
vn 1.0000 0.0000 0.0000
vn 0.0000 0.0000 1.0000
vn 0.0000 -1.0000 0.0000
vn 0.0000 1.0000 0.0000
usemtl Material.001
s off
f 25/1/1 3/2/1 27/3/1
f 10/4/2 7/5/2 9/6/2
f 20/7/3 5/8/3 19/9/3
f 14/10/4 1/11/4 16/12/4
f 19/9/5 11/13/5 22/14/5
f 18/15/6 14/16/6 24/17/6
f 21/18/6 6/19/6 20/7/6
f 22/14/5 16/20/5 23/21/5
f 6/19/4 11/22/4 5/8/4
f 15/23/2 9/6/2 13/24/2
f 4/25/2 13/24/2 3/2/2
f 23/21/5 1/26/5 17/27/5
f 24/17/6 12/28/6 21/18/6
f 12/29/4 16/12/4 11/22/4
f 32/30/6 21/18/6 29/31/6
f 31/32/5 17/27/5 27/33/5
f 30/34/5 23/21/5 31/32/5
f 29/31/6 20/7/6 28/35/6
f 25/36/6 24/17/6 32/30/6
f 26/37/5 22/14/5 30/34/5
f 28/35/3 19/9/3 26/37/3
f 2/38/1 17/39/1 1/40/1
f 8/41/3 26/37/3 7/5/3
f 7/5/5 30/34/5 9/42/5
f 4/43/6 32/30/6 15/44/6
f 10/45/6 28/35/6 8/41/6
f 9/42/5 31/32/5 13/46/5
f 13/46/5 27/33/5 3/47/5
f 15/44/6 29/31/6 10/45/6
f 18/48/1 27/3/1 17/39/1
f 25/1/1 4/25/1 3/2/1
f 10/4/2 8/41/2 7/5/2
f 20/7/3 6/19/3 5/8/3
f 14/10/4 2/49/4 1/11/4
f 19/9/5 5/8/5 11/13/5
f 18/15/6 2/50/6 14/16/6
f 21/18/6 12/28/6 6/19/6
f 22/14/5 11/13/5 16/20/5
f 6/19/4 12/29/4 11/22/4
f 15/23/2 10/4/2 9/6/2
f 4/25/2 15/23/2 13/24/2
f 23/21/5 16/20/5 1/26/5
f 24/17/6 14/16/6 12/28/6
f 12/29/4 14/10/4 16/12/4
f 32/30/6 24/17/6 21/18/6
f 31/32/5 23/21/5 17/27/5
f 30/34/5 22/14/5 23/21/5
f 29/31/6 21/18/6 20/7/6
f 25/36/6 18/15/6 24/17/6
f 26/37/5 19/9/5 22/14/5
f 28/35/3 20/7/3 19/9/3
f 2/38/1 18/48/1 17/39/1
f 8/41/3 28/35/3 26/37/3
f 7/5/5 26/37/5 30/34/5
f 4/43/6 25/36/6 32/30/6
f 10/45/6 29/31/6 28/35/6
f 9/42/5 30/34/5 31/32/5
f 13/46/5 31/32/5 27/33/5
f 15/44/6 32/30/6 29/31/6
f 18/48/1 25/1/1 27/3/1
o Pata_Cubo.001
v -0.975420 -1.942114 1.062012
v -0.975420 0.027427 1.062012
v -0.975420 -1.942114 0.792621
v -0.975420 0.027427 0.792621
v -0.707983 -1.942114 1.062012
v -0.707983 0.027427 1.062012
v -0.707983 -1.942114 0.792621
v -0.707983 0.027427 0.792621
vt 0.625000 0.000000
vt 0.375000 0.250000
vt 0.375000 0.000000
vt 0.625000 0.250000
vt 0.375000 0.500000
vt 0.625000 0.500000
vt 0.375000 0.750000
vt 0.625000 0.750000
vt 0.375000 1.000000
vt 0.125000 0.750000
vt 0.125000 0.500000
vt 0.875000 0.500000
vt 0.625000 1.000000
vt 0.875000 0.750000
vn -1.0000 0.0000 0.0000
vn 0.0000 0.0000 -1.0000
vn 1.0000 0.0000 0.0000
vn 0.0000 0.0000 1.0000
vn 0.0000 -1.0000 0.0000
vn 0.0000 1.0000 0.0000
usemtl Material.002
s off
f 34/51/7 35/52/7 33/53/7
f 36/54/8 39/55/8 35/52/8
f 40/56/9 37/57/9 39/55/9
f 38/58/10 33/59/10 37/57/10
f 39/55/11 33/60/11 35/61/11
f 36/62/12 38/58/12 40/56/12
f 34/51/7 36/54/7 35/52/7
f 36/54/8 40/56/8 39/55/8
f 40/56/9 38/58/9 37/57/9
f 38/58/10 34/63/10 33/59/10
f 39/55/11 37/57/11 33/60/11
f 36/62/12 34/64/12 38/58/12
o Pata.003_Cubo.002
v 0.700429 -1.942114 1.066632
v 0.700429 0.027427 1.066632
v 0.700429 -1.942114 0.797242
v 0.700429 0.027427 0.797242
v 0.967865 -1.942114 1.066632
v 0.967865 0.027427 1.066632
v 0.967865 -1.942114 0.797242
v 0.967865 0.027427 0.797242
vt 0.625000 0.000000
vt 0.375000 0.250000
vt 0.375000 0.000000
vt 0.625000 0.250000
vt 0.375000 0.500000
vt 0.625000 0.500000
vt 0.375000 0.750000
vt 0.625000 0.750000
vt 0.375000 1.000000
vt 0.125000 0.750000
vt 0.125000 0.500000
vt 0.875000 0.500000
vt 0.625000 1.000000
vt 0.875000 0.750000
vn -1.0000 0.0000 0.0000
vn 0.0000 0.0000 -1.0000
vn 1.0000 0.0000 0.0000
vn 0.0000 0.0000 1.0000
vn 0.0000 -1.0000 0.0000
vn 0.0000 1.0000 0.0000
usemtl Material.002
s off
f 42/65/13 43/66/13 41/67/13
f 44/68/14 47/69/14 43/66/14
f 48/70/15 45/71/15 47/69/15
f 46/72/16 41/73/16 45/71/16
f 47/69/17 41/74/17 43/75/17
f 44/76/18 46/72/18 48/70/18
f 42/65/13 44/68/13 43/66/13
f 44/68/14 48/70/14 47/69/14
f 48/70/15 46/72/15 45/71/15
f 46/72/16 42/77/16 41/73/16
f 47/69/17 45/71/17 41/74/17
f 44/76/18 42/78/18 46/72/18
o Pata.002_Cubo.003
v 0.691109 -1.942114 -0.832571
v 0.691109 0.027428 -0.832571
v 0.691109 -1.942114 -1.101962
v 0.691109 0.027428 -1.101962
v 0.958546 -1.942114 -0.832571
v 0.958546 0.027428 -0.832571
v 0.958546 -1.942114 -1.101962
v 0.958546 0.027428 -1.101962
vt 0.625000 0.000000
vt 0.375000 0.250000
vt 0.375000 0.000000
vt 0.625000 0.250000
vt 0.375000 0.500000
vt 0.625000 0.500000
vt 0.375000 0.750000
vt 0.625000 0.750000
vt 0.375000 1.000000
vt 0.125000 0.750000
vt 0.125000 0.500000
vt 0.875000 0.500000
vt 0.625000 1.000000
vt 0.875000 0.750000
vn -1.0000 0.0000 0.0000
vn 0.0000 0.0000 -1.0000
vn 1.0000 0.0000 0.0000
vn 0.0000 0.0000 1.0000
vn 0.0000 -1.0000 0.0000
vn 0.0000 1.0000 0.0000
usemtl Material.002
s off
f 50/79/19 51/80/19 49/81/19
f 52/82/20 55/83/20 51/80/20
f 56/84/21 53/85/21 55/83/21
f 54/86/22 49/87/22 53/85/22
f 55/83/23 49/88/23 51/89/23
f 52/90/24 54/86/24 56/84/24
f 50/79/19 52/82/19 51/80/19
f 52/82/20 56/84/20 55/83/20
f 56/84/21 54/86/21 53/85/21
f 54/86/22 50/91/22 49/87/22
f 55/83/23 53/85/23 49/88/23
f 52/90/24 50/92/24 54/86/24
o Pata.001_Cubo.004
v -0.978721 -1.942114 -0.842144
v -0.978721 0.027428 -0.842144
v -0.978721 -1.942114 -1.111534
v -0.978721 0.027428 -1.111534
v -0.711285 -1.942114 -0.842144
v -0.711285 0.027428 -0.842144
v -0.711285 -1.942114 -1.111534
v -0.711285 0.027428 -1.111534
vt 0.625000 0.000000
vt 0.375000 0.250000
vt 0.375000 0.000000
vt 0.625000 0.250000
vt 0.375000 0.500000
vt 0.625000 0.500000
vt 0.375000 0.750000
vt 0.625000 0.750000
vt 0.375000 1.000000
vt 0.125000 0.750000
vt 0.125000 0.500000
vt 0.875000 0.500000
vt 0.625000 1.000000
vt 0.875000 0.750000
vn -1.0000 0.0000 0.0000
vn 0.0000 0.0000 -1.0000
vn 1.0000 0.0000 0.0000
vn 0.0000 0.0000 1.0000
vn 0.0000 -1.0000 0.0000
vn 0.0000 1.0000 0.0000
usemtl Material.002
s off
f 58/93/25 59/94/25 57/95/25
f 60/96/26 63/97/26 59/94/26
f 64/98/27 61/99/27 63/97/27
f 62/100/28 57/101/28 61/99/28
f 63/97/29 57/102/29 59/103/29
f 60/104/30 62/100/30 64/98/30
f 58/93/25 60/96/25 59/94/25
f 60/96/26 64/98/26 63/97/26
f 64/98/27 62/100/27 61/99/27
f 62/100/28 58/105/28 57/101/28
f 63/97/29 61/99/29 57/102/29
f 60/104/30 58/106/30 62/100/30
